<?xml version="1.0" encoding="utf-8"?>
<!DOCTYPE svg PUBLIC "-//W3C//DTD SVG 20010904//EN" "http://www.w3.org/TR/2001/REC-SVG-20010904/DTD/svg10.dtd">
<svg version="1.0" xmlns="http://www.w3.org/2000/svg" width="908px" height="552px" viewBox="0 0 908 552" preserveAspectRatio="xMidYMid meet">
 <g fill="#000000">
  <path d="M596.6 542.9 c-2.3 -1.8 -2.6 -2.7 -2.6 -8.7 0.1 -10.1 3.4 -16.4 16 -30.4 10.3 -11.3 25.8 -22.4 39 -27.8 5.7 -2.3 7 -3.4 10.8 -8.8 l4.3 -6.2 -6.4 0 c-6 0 -6.7 -0.2 -9.1 -3 -2.7 -3.3 -4.6 -8.7 -4.6 -13.3 0 -2.7 -0.2 -2.6 -5.7 3.1 -7.7 7.7 -14 11.3 -21.2 11.9 -5.1 0.5 -6 0.3 -8.6 -2 -2.8 -2.3 -3 -3.1 -3.3 -10.5 -0.6 -11.6 1.9 -18.4 10.8 -29.8 18.8 -24 19.5 -25.2 14.2 -23.3 -4.1 1.4 -10.9 7.4 -18.7 16.4 -3.8 4.4 -7.2 8.2 -7.6 8.5 -0.6 0.5 -13.9 17.5 -25.2 32.4 l-5.8 7.6 -9.5 0 -9.4 0 0 -3.9 c0 -2.7 0.8 -4.8 2.4 -6.8 1.3 -1.5 4.5 -5.9 7.1 -9.7 2.6 -3.8 9.3 -13.5 14.9 -21.5 5.6 -8 11.3 -16.3 12.6 -18.5 l2.3 -3.8 -2.4 1.2 c-2.4 1.3 -9.9 8.8 -28.4 28.1 -5.5 5.8 -12.1 11.8 -14.6 13.2 -5 3 -18.1 7.7 -21.2 7.7 -1.4 0 -2.7 1.9 -5 7 l-3.1 7 -10.3 0 -10.3 0 0 -3.8 c0 -2.2 1 -5.9 2.3 -8.3 l2.3 -4.4 -10.5 -5.1 c-5.8 -2.8 -13.2 -7.3 -16.4 -9.9 l-5.7 -4.8 -11.4 11.1 c-20.3 19.6 -37.8 28.2 -57.5 28.2 -12.2 0 -19.5 -2.5 -28.8 -9.8 -9.6 -7.7 -13.7 -18.5 -13.1 -34.6 0.5 -12.7 3 -18.3 9.3 -20.4 7.8 -2.6 14.3 -0.1 17.1 6.5 1.9 4.5 1.8 15.4 -0.2 19.7 -2.2 4.5 -5 5.9 -11.3 5.5 -4.7 -0.4 -5 -0.2 -4.5 1.6 2.3 7.9 13.3 17.5 23.9 20.7 6.8 2.1 7.2 2.1 15 0.5 9.8 -2 18 -6 28.7 -13.9 8.5 -6.3 24.8 -21.4 24.8 -23.1 0 -0.5 -2.5 -5.3 -5.5 -10.6 -20.8 -36.8 -24.2 -84.4 -8.2 -115.5 2.3 -4.4 4.3 -8.4 4.5 -8.8 0.2 -0.5 -11.4 -0.8 -25.7 -0.8 l-26.1 0 0 -5.9 0 -5.9 4 -0.7 c4.6 -0.8 9.4 -3.8 12.4 -7.8 2.1 -2.8 2.1 -3.6 2.1 -61.1 0 -54.8 -0.1 -58.4 -1.9 -62.3 -2 -4.6 -6.1 -7.2 -12.8 -8.1 l-3.9 -0.5 0.3 -6.1 0.3 -6.1 35 0 35 0 0.5 70 c0.4 61.6 0.7 70.4 2.1 73.5 2.3 5 5 7 10.6 7.8 4.4 0.6 4.9 1 5.8 4.1 0.6 2.2 2.4 4.3 5.1 6.1 10.1 7 21.9 26.4 27.9 46 0.9 3 1.9 6.1 2.1 6.9 0.4 1.4 4.6 -3.6 20.7 -24.9 4.8 -6.3 11.1 -14.4 14.1 -18 l5.3 -6.5 -32.1 -0.5 -32.1 -0.5 -0.3 -4.8 c-0.3 -5.3 0.9 -7.7 4 -7.7 3.6 0 8.8 -3.2 10.6 -6.4 1.5 -2.8 1.7 -8.7 2 -62 0.3 -57.8 0.2 -58.9 -1.8 -63.1 -2.1 -4.3 -3.9 -5.6 -11 -7.3 l-3.5 -0.8 0 -6 0 -5.9 34 0 34 0 0.3 13 c0.3 12.4 0.4 12.9 2 10.9 10.9 -13.5 13.8 -16.7 18.2 -19.9 13.9 -10.2 36.4 -11.6 44.2 -2.9 6.4 7.2 7.2 26.7 1.7 37.6 -2.9 5.8 -9 8.8 -17.5 8.8 -9.6 0 -13.4 -1.3 -20.6 -7 -3.3 -2.8 -6.6 -5 -7.3 -5 -2.6 0 -9.6 7.4 -12.5 13.3 -6.2 12.7 -8.3 31.4 -7.5 66.7 0.4 13.5 0.8 25.6 1.1 26.9 0.3 1.3 1.9 3.7 3.5 5.2 l3 2.8 6.3 -7.2 c7.5 -8.7 23.2 -22.9 34 -30.9 15.2 -11.3 25.8 -16.4 39.4 -18.9 l7.3 -1.3 -0.3 -69.6 c-0.3 -78.9 0 -75.4 -8 -79 -2.4 -1.1 -5.5 -2 -7 -2 -2.4 0 -2.7 -0.5 -3.3 -4.4 -0.4 -2.4 -0.4 -5.3 0 -6.5 0.6 -2.1 1 -2.1 36 -2.1 l35.5 0 0.2 106.3 c0.3 102 0.4 106.3 2.2 109.9 1.9 3.7 5.6 5.9 12.6 7.6 3 0.7 3.5 1.3 3.8 4.1 0.2 1.9 0.1 4.4 -0.2 5.7 l-0.6 2.4 -44.5 0 -44.5 0 -0.6 -2.4 c-0.3 -1.3 -0.4 -3.8 -0.2 -5.6 0.3 -3 0.7 -3.4 6.2 -5 11.1 -3.5 12.6 -7.2 12.6 -30.7 l0 -14.6 -6.3 8.4 c-3.5 4.6 -12 15.9 -19 25.2 -21.1 27.7 -45.7 66.4 -78.3 122.9 -14.6 25.3 -30.9 55.7 -30.2 56.3 0.3 0.3 2.9 -0.7 5.9 -2.2 5.4 -2.7 11 -7.9 32.9 -31 13 -13.7 18.3 -17.3 25.7 -17.3 4.5 0 5.8 0.4 7.8 2.6 2 2.2 2.5 3.7 2.5 8.2 l0 5.4 6.2 -5.8 c8.4 -7.7 15.3 -10.9 22.1 -10 8.1 0.9 9.2 2.7 9.2 14.4 0 13.6 -2.8 19.7 -17.3 37.7 -3.7 4.5 -7.5 9.7 -8.6 11.5 l-1.8 3.2 2.3 -1.2 c6.9 -3.6 13.6 -10.1 28.9 -27.9 9.3 -10.8 19.1 -21.2 21.7 -23.2 18.7 -13.9 37.6 -19.7 43.8 -13.5 2.3 2.4 2.4 2.4 4.1 0.5 1.5 -1.7 2.9 -1.9 9.8 -1.7 l8.1 0.3 0.3 3.2 c0.3 2.8 -1.2 5.4 -9 16.4 -5.1 7.2 -13.3 18.8 -18.2 25.8 -4.8 6.9 -10 14.2 -11.5 16.1 -1.5 1.9 -3.5 4.8 -4.5 6.4 l-1.8 2.9 4.7 -3.4 c7 -4.9 24.5 -22.4 29.5 -29.4 4.2 -5.8 6.9 -9.1 26.8 -32.5 4.9 -5.8 11 -12.1 13.6 -14 2.7 -2 6.8 -6.7 9.6 -11 25.2 -38.2 60.7 -82.5 76.7 -95.6 7.7 -6.3 12.5 -8.4 19.5 -8.4 4.6 0 6.2 0.5 8.5 2.4 2.5 2.1 2.8 3.1 3.1 10 0.4 6.7 0.1 8.2 -2.6 13.8 -11.3 23.9 -51.9 64.2 -84.4 83.9 -5.4 3.2 -7.1 5.5 -21.3 27.9 -13.3 21 -27.5 45.9 -29 50.8 -0.9 3.2 1.3 2.9 6.6 -1 5.6 -4 13 -11.7 23.1 -23.8 19.6 -23.6 24.2 -28 36.3 -34.6 6.3 -3.5 7.7 -3.9 14.1 -3.9 9.1 0 10.4 1 10.4 8.2 0 5.6 -1.4 9.4 -5.8 15.1 -4.8 6.3 -17.9 14.3 -28.6 17.3 -5.3 1.5 -6.9 3.2 -13 13.3 -4.1 6.8 -4.5 9.6 -1.6 11.3 4.5 2.9 18.2 -6 32.8 -21.2 10.5 -11 11.2 -11.5 15.1 -11.5 l4.1 0 0 4.1 c0 3.9 -0.6 4.8 -10.2 14.8 -12.2 12.7 -16.1 15.8 -25.5 20.5 -6.2 3.2 -8.1 3.6 -14.5 3.6 -8.4 0 -11.2 -1.4 -13.4 -6.6 -0.8 -1.8 -1.4 -5 -1.4 -7 l0 -3.6 -6.7 6.2 c-10.4 9.8 -14.5 12 -22 12 -6.8 0 -9.4 -1.5 -11.3 -6.6 -2.5 -6.4 -0.5 -20.6 4.2 -29.7 2.8 -5.6 1.6 -5.6 -2.4 0 -13.1 18.3 -36.3 38.5 -54.9 48 -6.9 3.6 -7.7 4.4 -14.4 14 -23.6 34.2 -37.7 49.9 -49.7 55.3 -6 2.7 -15.6 2.7 -19.2 -0.1z m22.1 -16.9 c5.4 -5.7 26.3 -35.7 24 -34.4 -6.9 3.9 -18.3 13.5 -24.4 20.4 -9.3 10.7 -16.2 21.8 -14.3 23 2.2 1.4 8.7 -2.6 14.7 -9z m56.8 -88.4 c20.3 -20.5 35.7 -45.6 28.1 -45.6 -7.6 0 -40.3 37.1 -46.1 52.4 -4.3 11.2 3 8.4 18 -6.8z m-164.1 -17.3 c6.5 -21.1 12 -55.3 9.9 -61.1 -0.8 -2 -1.4 -1.5 -7.3 6.5 -7.5 10.3 -23.9 32 -31 41.3 -2.7 3.5 -5 6.7 -5 7.1 0 0.4 2.4 2.8 5.3 5.3 5.6 5 22.7 14 24 12.7 0.4 -0.4 2.3 -5.7 4.1 -11.8z m303.4 -13.9 c2.3 -1.9 5.1 -4.9 6.3 -6.6 2 -2.7 2 -2.9 0.3 -2 -2.7 1.5 -13.1 12.2 -11.8 12.2 0.6 0 2.9 -1.6 5.2 -3.6z m-335.2 -12.6 c4.9 -6.2 12 -15.6 15.8 -20.8 3.8 -5.2 8.3 -11.2 9.9 -13.3 7 -9.1 12.7 -18.2 12.7 -20.2 0 -4.6 -6.9 -22.8 -11.6 -30.7 -9 -15 -19.1 -23.8 -27.4 -23.8 -7.6 0 -17.3 7.8 -23.2 18.6 -6.9 12.7 -9.6 34.8 -6.4 52.4 1.7 8.8 7.2 26.2 10.3 32.5 2.7 5.3 9.7 16.5 10.4 16.5 0.4 0 4.6 -5.1 9.5 -11.2z m59.9 -20.8 c13.4 -24.2 47.3 -76.8 62.5 -97 3.1 -4.1 7.1 -9.7 9 -12.4 4 -5.9 18.1 -23.5 26.4 -33 5.4 -6.1 5.7 -6.7 2.9 -5.2 -10.1 5.2 -27.4 19 -40.8 32.5 l-8.9 9 -0.1 5.8 0 5.8 -5.7 0.5 c-4.5 0.4 -6 1 -7.6 3 -1.1 1.4 -5.4 6.8 -9.6 12 -4.3 5.2 -13.6 17.4 -20.8 27 -7.2 9.6 -14 18.5 -15.1 19.8 -2 2.1 -2.1 3.6 -2.2 22 -0.1 10.8 -0.5 22 -0.9 24.7 l-0.8 5 3 -4.5 c1.6 -2.5 5.5 -9.2 8.7 -15z m280.5 -36.3 c23.6 -19.9 40 -38.6 48.8 -55.5 3.9 -7.4 4.1 -8.2 2.6 -9.7 -4.1 -4.1 -15.2 4.9 -30.3 24.5 -7.5 9.8 -32 45.3 -36.6 53 -1 1.7 -2.4 2.9 15.5 -12.3z"/>
  <path d="M181 449.9 c-38.6 -3.6 -72.7 -18.8 -102.7 -45.8 -37.2 -33.5 -59.3 -74.9 -66.7 -124.7 -8.7 -58.8 -0.9 -119.8 21.1 -163.8 17.8 -35.5 42.9 -64.8 72.3 -84.2 17.8 -11.7 29.9 -16.9 54 -23 18.9 -4.8 38.5 -6.2 63.3 -4.6 25.7 1.8 35 3.9 63.2 14.4 35.4 13.3 31.2 12 35.1 10.2 5.2 -2.5 10.5 -9.2 13.9 -17.5 l3.1 -7.4 9.2 -0.3 9.2 -0.3 0.2 72.6 c0.1 39.9 0.2 74.6 0.3 77.3 l0 4.7 -9.5 0 -9.5 0 -4.2 -12.9 c-13.6 -41.9 -30.6 -68.8 -56.5 -89.6 -20.8 -16.8 -46.2 -25.3 -67.9 -22.9 -9.9 1.1 -22.8 5.3 -32.4 10.5 -10.5 5.7 -26.6 22.2 -34 34.9 -6.9 11.6 -15.4 32.2 -18.9 45.6 -3.3 12.6 -8.1 40.6 -10.3 59.9 -2.1 19 -2.4 72.7 -0.4 92 3.8 37.7 8.9 62 17.5 83.1 12.2 30 29.2 48 52.6 55.9 16.8 5.7 41.6 7.7 63.5 5.1 9.2 -1.1 37.4 -7.8 39.3 -9.3 1.6 -1.4 1.8 -100 0.1 -109.4 -1.3 -7.6 -5.8 -13.4 -13.8 -17.8 -7.5 -4 -10.3 -4.7 -23.1 -5.4 l-11.5 -0.7 0 -10.5 0 -10.5 78 0.4 c42.9 0.2 78.3 0.5 78.8 0.8 0.4 0.2 0.7 5.1 0.7 10.9 l0 10.4 -2.7 0 c-5.1 0 -18.3 3 -22.3 5 -4.7 2.4 -8.4 7.1 -11.3 14.2 -2.1 5.2 -2.1 6.6 -2.4 62.8 l-0.2 57.5 -12.5 5.8 c-22.3 10.2 -61 21.4 -85.6 24.6 -22.8 3 -56.1 3.9 -77 2z"/>
  <path d="M795.5 283.1 c-2.2 -0.5 -8.9 -2.5 -14.8 -4.4 l-10.8 -3.5 -2.5 3.9 -2.5 4 -6.2 -0.3 -6.2 -0.3 -1.3 -30.3 c-1.1 -23.6 -1.1 -30.6 -0.2 -31.8 1.7 -2 8.3 -1.8 10.3 0.4 0.8 0.9 2.7 4.4 4.2 7.7 3.6 8.2 10.7 19.3 14.7 23.1 4.4 4.2 13.9 10.2 19 12 3.7 1.3 4.4 1.2 8.3 -0.5 5.4 -2.4 9.7 -7.9 9.7 -12.4 0 -8.1 -5.4 -13.9 -29.5 -31.4 -6.5 -4.7 -16 -12.6 -21.2 -17.5 -13.9 -13.2 -18.5 -23.5 -18.5 -41.7 0 -15 5.1 -28.2 14.6 -37.7 9.5 -9.6 19.4 -12.8 37.9 -12.2 10.3 0.4 12.9 0.8 18.5 3.2 13.1 5.6 12.1 5.4 13.9 2.6 3.5 -5.3 4.9 -6.1 10.4 -5.8 l5.2 0.3 0.7 8.5 c1.3 16.4 2.7 49.1 2.1 50.6 -0.8 2.1 -11.2 1.6 -12.4 -0.6 -0.4 -0.8 -2.7 -5.3 -4.9 -10 -5.3 -10.7 -11 -18.2 -17.8 -23.2 -10.2 -7.6 -17.3 -8.4 -23 -2.5 -4.8 5 -5.5 7.7 -2.9 12 2.9 4.7 7.8 8.8 28.7 24.4 18.4 13.6 25.3 19.7 31.5 27.6 11 13.9 12.6 39.9 3.5 58.4 -9.1 18.4 -22.8 27 -44.4 27.8 -5.6 0.2 -11.9 0 -14.1 -0.4z"/>
  <path d="M875.5 118.8 c-0.9 -4.1 -3.5 -33.1 -3.5 -39.3 0 -12.3 3.8 -18.1 12.6 -19.1 7 -0.9 12.6 0.9 16.3 5.1 2.8 3.2 3.1 4.2 3.1 10.3 0 5.7 -0.6 7.9 -3.6 14.2 -2 4.1 -5.6 12 -8.1 17.5 -5.6 12.6 -6.5 13.5 -11.9 13.5 -3.7 0 -4.4 -0.3 -4.9 -2.2z"/>
  <path d="M436.6 95.9 c-6.5 -1.6 -13.6 -7.7 -16.7 -14.4 -2.6 -5.7 -2.6 -22.3 0 -28.1 3 -6.7 8.6 -12.1 14.3 -14 7.7 -2.5 21 -1.6 27 1.8 4.9 2.9 9.1 7.8 11.4 13.3 2.3 5.6 1.9 21.8 -0.7 27.2 -2.1 4.4 -8.1 10.3 -13.2 12.9 -3.4 1.8 -16.9 2.6 -22.1 1.3z"/>
 </g>
 <g fill="#ffffff">
  <path d="M0 276 l0 -276 454 0 454 0 0 276 0 276 -454 0 -454 0 0 -276z m612.8 264 c12 -5.4 26.1 -21.1 49.7 -55.3 6.7 -9.6 7.5 -10.4 14.4 -14 18 -9.2 38.9 -27.2 53.1 -45.7 1.9 -2.5 5.5 -6.8 8 -9.5 2.5 -2.8 8.2 -9.5 12.7 -15 4.5 -5.5 9.6 -11.3 11.4 -13 3.6 -3.3 3.8 -3.6 -3.4 7 -5 7.2 -14 23.8 -18.2 33.4 -6.4 14.5 -7 23.1 -2 28.5 5.5 5.9 13.5 2.1 28.8 -13.7 l9.8 -10.1 -0.7 7 c-1.1 12.3 2.6 18.4 11.3 18.4 5 0 16 -5 22.9 -10.3 5.4 -4.3 24.4 -24.1 24.4 -25.6 0 -2.6 -2.8 -0.4 -13.5 10.7 -17.7 18.4 -32.9 26.2 -39.2 20.2 -3.1 -2.8 -2.9 -6.5 0.7 -13.6 5.4 -10.6 9.1 -14.7 14.6 -16.3 14.7 -4.2 27.4 -13.4 32.8 -23.8 5.4 -10.6 -3.6 -14.2 -17 -6.9 -12 6.6 -16.8 11.2 -36.5 34.9 -16.5 19.9 -29.2 30.2 -34.1 27.6 -5.7 -3 1.7 -19.1 27.7 -59.9 14.2 -22.4 15.9 -24.7 21.3 -27.9 32.5 -19.7 73.1 -60 84.5 -83.9 3.7 -7.9 3.5 -14.3 -0.8 -17.9 -7.1 -6.1 -18.1 0.4 -38.6 23 -16.5 18.1 -42.3 52 -59.9 78.7 -2.8 4.3 -6.9 9 -9.6 11 -2.6 1.9 -8.7 8.2 -13.6 14 -19.9 23.4 -22.6 26.7 -26.8 32.5 -6.6 9.2 -21.2 23.2 -34.1 32.7 -21.5 15.9 -21.7 15.3 -3 -10.7 2.8 -3.8 9.3 -13.1 14.5 -20.5 5.3 -7.4 13.6 -19.1 18.5 -26 4.9 -6.9 8.7 -12.8 8.4 -13.2 -0.2 -0.5 -2.6 -0.8 -5.3 -0.8 -4.8 0 -5 0.1 -9.2 5.8 l-4.3 5.7 -0.6 -4.4 c-0.6 -4.7 -3.6 -8.1 -6.9 -8.1 -6.4 0 -21.8 7.4 -33.3 15.9 -2.6 2 -12.4 12.4 -21.7 23.2 -16.5 19.2 -23.1 25.4 -30.3 28.4 -6.5 2.7 -8.9 -0.3 -5.7 -7 1.1 -2.3 5.1 -8 9 -12.8 13.5 -16.7 17.4 -24.5 17.5 -34.8 0 -7.5 -1.6 -10.3 -6.3 -11.2 -6.6 -1.3 -19.8 8.5 -31.2 23.1 -3 3.9 -5.6 7 -5.7 6.8 -0.1 -0.1 0.9 -3.4 2.2 -7.2 1.3 -3.9 2.7 -9.5 3.1 -12.5 0.5 -4.9 0.4 -5.7 -1.9 -8.1 -1.5 -1.6 -3.7 -2.8 -5 -2.8 -5.5 0 -16.4 9.5 -37.2 32.4 -4.9 5.5 -11.5 11.6 -14.7 13.6 -5.1 3.4 -18.3 7.8 -19.5 6.6 -0.9 -0.8 20.1 -40.4 34.9 -65.9 34 -58.5 56.6 -93.8 78.5 -122.8 27.8 -36.7 29.4 -38.9 27.9 -39.5 -2.3 -0.9 -17.7 3.5 -25 7.2 -14.8 7.4 -39.9 27.8 -53.5 43.4 -3.6 4.1 -7.1 7.6 -7.8 7.8 -2.1 0.6 -8.2 -3.7 -9.9 -6.9 -1.2 -2.5 -1.5 -8.9 -1.7 -38.2 -0.1 -30.2 0.1 -36.5 1.6 -44.6 3.1 -16 7.3 -24.6 14.9 -30.1 5.8 -4.2 8.2 -3.9 16.1 2.5 7 5.6 11.5 7.5 18.1 7.5 5.4 0 12.1 -4.1 14.5 -8.8 5.3 -10.5 4.1 -26.4 -2.6 -32.4 -8.1 -7.4 -24.4 -5.7 -37.2 3.7 -5.7 4.1 -14 13.6 -20.3 23.3 -2.2 3.4 -4.3 6 -4.7 5.7 -0.3 -0.4 -0.8 -7.9 -1.1 -16.8 l-0.5 -16.2 -31 0 -31 0 0 2.9 c0 2.6 0.5 3.1 3.5 3.8 7 1.7 8.9 3 11 7.3 2 4.2 2.1 5.3 1.8 66.1 -0.3 55.5 -0.5 62.2 -2 64.9 -1.8 3.4 -4.9 5.4 -9.8 6.4 -3.7 0.7 -5.6 3 -4.7 5.5 0.6 1.4 4.1 1.6 34.7 1.6 18.7 0 34 0.3 34 0.6 0 0.3 -3.5 4.9 -7.7 10.1 -6.9 8.4 -24.6 31.2 -36.5 47.2 l-4.1 5.4 -2.9 -9.9 c-7 -23.9 -17.8 -42.2 -30 -50.9 -3 -2.2 -4.8 -4.2 -4.5 -5 0.9 -2.3 -1.6 -4.2 -6.1 -4.8 -5 -0.6 -7.8 -2.7 -10.1 -7.7 -1.4 -3.1 -1.7 -11.9 -2.1 -73.5 l-0.5 -70 -32 0 -32 0 -0.3 3.1 c-0.3 2.9 -0.1 3.2 3.6 3.6 6.7 0.9 10.8 3.5 12.8 8.1 1.8 3.9 1.9 7.6 1.9 65.3 0 60.6 0 61.3 -2.1 64.1 -3 4 -7.8 7 -12.4 7.8 -3.6 0.6 -4 1 -4 3.6 l0 2.9 29 0 c16 0 29 0.4 29 0.8 0 0.5 -1.3 1.8 -2.9 2.9 -1.5 1.2 -4.9 6.1 -7.4 11 -13 25.1 -13.6 58.6 -1.6 90.3 4 10.6 12.4 26.7 16.1 30.7 l2.1 2.2 -3.1 3.8 c-8 10 -25.1 24.3 -36.7 30.8 -7.3 4.1 -19.6 7.5 -27.1 7.5 -10.9 0 -24.2 -6.6 -30.9 -15.4 -3.8 -4.9 -6.5 -13.6 -6.5 -20.6 0 -6.9 1.2 -7.7 2.9 -2.1 1.3 4.4 5.2 8.1 8.5 8.1 6.6 -0.1 10.7 -11.1 7.2 -19.3 -2.6 -6.3 -8.1 -8.6 -13.5 -5.7 -3.5 1.8 -6.4 8.8 -6.9 16.6 -0.8 12.6 4.1 24.4 13.1 31.6 12.1 9.5 22.8 11.7 38 7.9 15.4 -4 26.8 -11.2 43.8 -27.8 l12.8 -12.5 7.2 6.2 c6.6 5.7 25 16 28.5 16 2.4 0 2.2 1.6 -1.2 8.5 -1.8 3.9 -3.4 7.3 -3.4 7.8 0 0.4 3.3 0.7 7.3 0.7 l7.3 0 3.1 -7 c2.3 -5.1 3.6 -7 5 -7 3 0 16.1 -4.7 20.8 -7.4 4.9 -2.9 15.3 -13 27.8 -26.8 4.9 -5.4 11.7 -11.8 15.1 -14.3 9.3 -6.6 13.7 -5.7 10 2 -2.4 5.1 -21.7 33.6 -35.1 51.9 -2.9 3.9 -5.3 7.4 -5.3 7.8 0 0.5 2.9 0.8 6.4 0.8 l6.5 0 5.8 -7.6 c11.3 -14.9 24.6 -31.9 25.2 -32.4 0.4 -0.3 3.8 -4.1 7.6 -8.5 8.8 -10.2 14.7 -15.1 20.8 -17.1 3.8 -1.3 5.1 -1.3 6.2 -0.4 3.7 3.1 0.4 9.9 -11.7 24.2 -12 14.1 -16.3 23.1 -15.5 32.7 0.3 4.4 0.9 5.9 3.2 7.8 2.2 1.9 3.4 2.3 5.9 1.7 7.2 -1.5 15.3 -8 26 -20.7 2.6 -3.2 5 -5.7 5.2 -5.5 0.1 0.2 -0.2 3.3 -0.8 6.8 -1.3 7.7 -0.1 13.3 3.8 18 4.4 5.1 11.6 3.5 21.8 -5 2.6 -2.2 5 -4 5.2 -4 0.8 0 -1.2 3.2 -10.8 16.9 -9.2 13.4 -9.3 13.5 -15.8 16.1 -21 8.6 -45.3 30.3 -53.1 47.3 -5.4 12.1 1.8 19.2 13.9 13.7z m-378.3 -93 c18.5 -1.5 27.5 -2.9 46.5 -7.2 21.9 -5 43.3 -12.1 59.5 -19.5 l12.4 -5.8 0.4 -57.5 c0.3 -55.9 0.4 -57.7 2.4 -62.8 2.9 -7.1 6.6 -11.8 11.3 -14.2 4 -2 17.2 -5 22.3 -5 l2.7 0 0 -7.4 c0 -4.1 -0.3 -7.7 -0.7 -7.9 -0.5 -0.3 -34.5 -0.7 -75.8 -0.8 l-75 -0.4 0 7.5 0 7.5 11.5 0.7 c12.8 0.7 15.6 1.4 23.1 5.4 8 4.4 12.5 10.2 13.8 17.8 1.7 9.4 1.5 114 -0.1 115.4 -2 1.6 -30.2 8.2 -39.8 9.3 -15 1.8 -41.2 1.3 -52.5 -0.9 -21.7 -4.3 -32.5 -9.6 -44.9 -22 -10.3 -10.3 -17.4 -21.4 -24.2 -38.1 -8.6 -21.1 -13.7 -45.2 -17.6 -83.1 -1.9 -19.5 -1.7 -78.8 0.5 -98 2.2 -19.3 7 -47.3 10.3 -59.9 3.5 -13.4 12 -34 18.9 -45.6 7.4 -12.7 23.5 -29.2 34 -34.9 33.9 -18.4 73.9 -13.7 106.5 12.5 25.7 20.7 42.7 47.8 56.3 89.5 l4.2 12.9 6.5 0 c5.6 0 6.5 -0.3 6.4 -1.7 0 -1 -0.1 -34.4 -0.2 -74.3 l-0.2 -72.6 -6.2 0.3 -6.2 0.3 -3.1 7.4 c-4.8 11.8 -12.6 19.1 -20.4 19.1 -1.7 0 -6.5 -1.3 -10.8 -2.9 -4.3 -1.6 -15 -5.6 -23.8 -8.9 -27.6 -10.3 -37.3 -12.5 -61.7 -14.3 -22.3 -1.6 -40.1 -0.2 -58.8 4.5 -24.1 6.1 -36.2 11.3 -54 23 -29.4 19.4 -54.5 48.7 -72.3 84.2 -18.5 37.1 -27.8 90.8 -23.6 136.4 3.4 37.4 10.7 63.9 24.4 89.2 12.6 23.2 25.5 39.5 44.8 56.9 30 27 64.1 42.2 102.7 45.8 13.2 1.2 36.3 1.2 50.5 0.1z m589 -169.1 c8.3 -2.8 14.9 -7.2 20 -13.6 12.6 -15.4 16.5 -35.3 10.2 -52.5 -4.4 -12.1 -12 -20 -37.7 -39.1 -21 -15.6 -25.8 -19.7 -28.7 -24.5 -3.8 -6.2 -2.5 -12.9 3.6 -18.6 2.4 -2.3 4.2 -3 8.5 -3.4 14.1 -1.2 27.7 9.7 37.6 29.8 2.2 4.7 4.5 9.2 4.9 10 1 1.9 5.7 2.5 6.3 0.8 0.4 -1.4 -0.8 -30 -2 -44.3 -0.6 -8.2 -0.9 -9 -2.9 -9.3 -2.1 -0.3 -3.3 0.6 -8 6.2 -2.8 3.4 -5.9 3.3 -13.3 -0.4 -15.1 -7.6 -33.4 -8 -47.4 -0.8 -15.2 7.8 -25.7 30.3 -22.9 49.4 1.8 12.3 6.4 20.4 17.8 31.2 5.2 4.9 14.7 12.8 21.2 17.5 26 18.9 29.7 23.2 29.8 34.3 0 5.2 -0.4 6.6 -2.9 9.8 -6 7.9 -15.5 9.4 -25.9 4.1 -13 -6.5 -19.7 -13.8 -27.7 -30.2 -5.7 -11.4 -7.3 -13.4 -9.5 -11.2 -1.2 1.2 -1.3 5.4 -0.2 28.9 l1.2 27.5 3.2 0.3 c2.8 0.3 3.5 -0.2 5.8 -3.7 3.2 -5.2 4.4 -5.2 18.9 -0.5 6.1 2 12.9 4 15.1 4.4 5.7 1.3 17.9 0.2 25 -2.1z m-90 -3.9 c0.9 -2.8 0.1 -3.7 -4.1 -4.5 -6.1 -1.1 -10 -3.6 -12 -7.4 -1.8 -3.4 -1.9 -8.2 -2.2 -109.8 l-0.2 -106.3 -32.4 0 c-34.3 0 -33.7 -0.1 -32.8 4.7 0.3 1.7 1.1 2.3 3.1 2.3 1.4 0 4.5 0.9 6.9 2 8.2 3.7 7.7 -2.9 8 103.5 0.2 64.9 -0.1 95.6 -0.8 99.2 -1.3 6.3 -4.5 9.4 -11.6 11.3 -6 1.6 -6.8 2.2 -5.9 4.9 0.6 2.1 0.9 2.1 42 2.1 40.4 0 41.4 0 42 -2z m149.8 -157.7 c0.8 -1 3.5 -6.3 6 -11.8 2.5 -5.5 6.1 -13.4 8.1 -17.5 4.6 -9.5 4.7 -13.7 0.5 -18.4 -5.6 -6.4 -13.7 -6.8 -18.8 -1 -4.1 4.7 -4.6 9.4 -2.6 29.6 1.8 19.3 2.1 20.8 3.9 20.8 0.7 0 2 -0.8 2.9 -1.7z m-427.3 -24.8 c4.7 -2.5 10.8 -8.5 12.9 -12.8 2.5 -5.2 2.8 -16 0.7 -21.2 -4 -9.4 -11.8 -15.3 -21.5 -16.2 -11.3 -1 -20.3 4.4 -25.2 15.1 -2.5 5.6 -2.5 16.7 0 22.1 3.1 6.7 10.2 12.8 16.7 14.4 4.6 1.1 12.9 0.4 16.4 -1.4z"/>
  <path d="M601.3 538.3 c-0.7 -0.2 -1.3 -2.1 -1.3 -4.1 0 -7.7 15.7 -28.2 29.5 -38.5 8.8 -6.6 26.1 -15.8 25.2 -13.4 -0.3 0.8 -2.7 4.6 -5.4 8.3 -2.7 3.8 -8.8 12.8 -13.6 19.9 -15.1 22.7 -25.8 31.3 -34.4 27.8z"/>
  <path d="M654 454 c-1.8 -1.8 -2.1 -2.9 -1.5 -5.8 1.7 -9.4 8.7 -20.4 23.9 -38 10.4 -12.2 16.6 -17.8 21.9 -20.3 5.1 -2.3 7.1 -2.4 9.1 -0.3 6.2 6.1 -6.3 28.1 -28.9 51 -12.9 13.2 -20.6 17.3 -24.5 13.4z"/>
  <path d="M495.3 431.9 c-7.2 -3.5 -12.2 -6.9 -16.9 -11.3 l-6.8 -6.3 4.7 -5.9 c2.6 -3.2 6 -7.5 7.6 -9.4 5 -6.3 15.4 -20.2 27.1 -36.2 6.3 -8.7 11.7 -15.8 12.1 -15.8 1.1 0 2.1 17.2 1.4 24.1 -1.9 19.8 -5.1 35.9 -10 52.1 -3.6 11.6 -4.8 13.8 -7.4 13.8 -0.9 -0.1 -6.2 -2.3 -11.8 -5.1z"/>
  <path d="M518 419.5 c0 -0.5 0.5 -2.7 1 -4.7 5.4 -19.2 8.6 -43.9 7.5 -57.8 -1 -13.6 -0.7 -16.1 1.9 -19 1.3 -1.4 8.2 -10.4 15.4 -20 7.2 -9.6 16.5 -21.8 20.8 -27 4.2 -5.2 8.5 -10.6 9.6 -12 1.6 -2 3.1 -2.6 7.6 -3 6.4 -0.6 7.8 -2.4 4.3 -5.9 l-2.1 -2.1 6.3 -6.6 c24.7 -26.5 47.7 -42.5 67.1 -46.9 2.4 -0.5 1.1 1.2 -8.1 10.2 -11.3 11.1 -23.9 26.1 -35.2 41.8 -3.5 5 -8.3 11.5 -10.6 14.5 -13.4 17.7 -48.3 72 -61 95 -3.2 5.8 -6.8 12.1 -8.1 14.1 -1.2 2 -4.5 8.2 -7.3 13.7 -5.7 11.3 -9.1 17.2 -9.1 15.7z"/>
  <path d="M796 419.7 c0 -0.9 9.5 -12.4 14.9 -18.1 5.1 -5.4 12.6 -10.6 15.2 -10.6 3.1 0 3.2 1.9 0.4 7.5 -3.2 6.7 -10.7 13.5 -18.9 17.4 -6.3 3 -11.6 4.7 -11.6 3.8z"/>
  <path d="M464.3 404.3 c-6.6 -10.2 -8.4 -13.9 -12.6 -26 -5.5 -15.8 -7 -25.9 -6.4 -43.1 0.7 -21.4 4.6 -33.3 14.5 -44.3 8.1 -9.1 19.6 -11.8 29.5 -7 5.9 2.9 13.9 11.6 20.1 21.9 4.9 8.3 10.9 24.2 12.1 32.5 0.6 4.2 0.4 5 -3.6 10.9 -2.3 3.4 -6.1 8.8 -8.4 11.8 -2.3 3 -7.3 9.8 -11.1 15 -8.3 11.5 -27.2 35.4 -28.2 35.8 -0.5 0.1 -3.1 -3.3 -5.9 -7.5z"/>
  <path d="M792 362.4 c0 -2.9 32.4 -51.6 46.3 -69.7 12.8 -16.7 24.5 -26.6 31.3 -26.7 3.2 0 6.4 3.6 6.4 7.3 0 4.2 -7.3 17.6 -15.1 28.1 -11.8 15.5 -38.3 40.5 -58.1 54.4 -10 7 -10.8 7.5 -10.8 6.6z"/>
 </g>
</svg>